<svg width="18" height="22" viewBox="0 0 18 22" fill="none" xmlns="http://www.w3.org/2000/svg">
<path d="M14.9208 11.4307C14.9114 9.71004 15.6896 8.41137 17.2649 7.45494C16.3835 6.19378 15.052 5.4999 13.2939 5.36394C11.6295 5.23266 9.81045 6.33443 9.1447 6.33443C8.44145 6.33443 6.82865 5.41082 5.5628 5.41082C2.9467 5.45302 0.166504 7.49714 0.166504 11.6557C0.166504 12.8841 0.391545 14.153 0.841627 15.4627C1.44174 17.1833 3.60775 21.4028 5.86754 21.3325C7.04901 21.3043 7.88353 20.4933 9.42131 20.4933C10.9122 20.4933 11.6858 21.3325 13.0032 21.3325C15.2818 21.2996 17.2415 17.4646 17.8135 15.7393C14.7567 14.2999 14.9208 11.5197 14.9208 11.4307ZM12.2671 3.73239C13.5471 2.21337 13.4299 0.830301 13.3923 0.333336C12.2625 0.398973 10.9544 1.10223 10.209 1.96957C9.38849 2.89786 8.90559 4.04651 9.00874 5.3405C10.2324 5.43426 11.3482 4.80602 12.2671 3.73239Z" fill="#1E2432"/>
</svg>
